<?xml version="1.0" encoding="UTF-8" standalone="no"?>
<!-- Created with Inkscape (http://www.inkscape.org/) -->

<svg
   version="1.1"
   id="svg1"
   width="600"
   height="600"
   viewBox="0 0 600 600"
   sodipodi:docname="Leo seal"
   inkscape:version="1.4 (e7c3feb1, 2024-10-09)"
   xmlns:inkscape="http://www.inkscape.org/namespaces/inkscape"
   xmlns:sodipodi="http://sodipodi.sourceforge.net/DTD/sodipodi-0.dtd"
   xmlns="http://www.w3.org/2000/svg"
   xmlns:svg="http://www.w3.org/2000/svg">
  <sodipodi:namedview
     id="namedview1"
     pagecolor="#ffffff"
     bordercolor="#000000"
     borderopacity="0.25"
     inkscape:showpageshadow="2"
     inkscape:pageopacity="0.0"
     inkscape:pagecheckerboard="0"
     inkscape:deskcolor="#d1d1d1"
     inkscape:zoom="0.69666667"
     inkscape:cx="300"
     inkscape:cy="300"
     inkscape:window-width="1264"
     inkscape:window-height="637"
     inkscape:window-x="0"
     inkscape:window-y="25"
     inkscape:window-maximized="0"
     inkscape:current-layer="g1" />
  <defs
     id="defs1" />
  <g
     inkscape:groupmode="layer"
     inkscape:label="Image"
     id="g1">
    <path
       style="fill:#ffffff;fill-opacity:1"
       d="M 388.71504,599.42313 C 388.59677,599.32763 362.85,598.9868 331.5,598.66573 241.07907,597.73968 209.04547,597.20632 201,596.49287 c -4.125,-0.36579 -20.325,-0.81837 -36,-1.00573 -32.26368,-0.38565 -51.74997,-1.30315 -54.0968,-2.54712 -0.93938,-0.49793 -2.01976,-0.42346 -2.6241,0.18088 -1.13294,1.13294 -13.47677,1.493 -15.176235,0.44267 C 91.908467,592.8254 79.654577,591.7629 73.5,591.86387 52.484438,592.20866 30.052007,587.06017 22.240082,580.09915 10.842099,569.94268 8.9146569,565.59575 8.9912456,550.21927 c 0.025425,-5.10441 -0.4216767,-10.15502 -0.9935582,-11.22359 -0.7288976,-1.36196 -0.6971578,-3.30355 0.1061561,-6.4938 0.9438502,-3.74837 0.8512653,-5.60116 -0.524996,-10.50612 -1.1298492,-4.02675 -1.3654806,-6.52843 -0.727655,-7.72547 1.0349301,-1.94229 0.8092397,-21.00959 -0.3367663,-28.45147 -0.5172939,-3.35918 -0.2382625,-6.13419 0.9880453,-9.82626 1.9159337,-5.76834 1.4561311,-14.14215 -1.0809304,-19.68565 -1.3357667,-2.91866 -1.2912924,-3.47275 0.5174744,-6.44703 1.2093302,-1.98858 1.6341244,-3.66929 1.0923851,-4.32204 C 6.6363054,443.85685 5.9813429,427.13505 7.2053733,424.4486 7.9967083,422.71181 7.9483359,421.28949 7.0218651,419.05279 5.955678,416.47878 5.6957703,409.66472 6.1616374,396.5 6.4767712,387.59478 4.919019,351.79964 4.099828,349.12227 3.4513457,347.00284 3.4121298,345.09845 3.9945576,344.01017 5.2566881,341.65186 4.5177362,329.82982 2.9240635,326.88399 1.5428026,324.3308 1.5263832,319.31512 2.8935615,317.56647 4.3466467,315.70796 4.5279649,302.95491 3.1141167,302.05368 2.2614353,301.51016 2.4650809,292.88422 3.5403373,284 5.4703426,268.05348 5.8135238,259.58444 5.5056472,235.5 5.1075403,204.35706 4.8597183,139.75588 5.062568,120 5.2176679,104.89455 5.226683,72.315542 5.0772022,67.114572 5.0236869,65.252586 5.439143,63.175791 6.0004379,62.499472 7.0465483,61.238986 7.2094828,60.121146 9.3527994,39.5 10.548659,27.994465 13.926995,19 17.052632,19 c 0.383552,0 0.962473,-1.325527 1.286491,-2.945616 0.330217,-1.651084 1.593714,-3.463911 2.875,-4.124963 1.257232,-0.648641 3.249652,-2.0557803 4.427599,-3.1269762 1.177947,-1.0711958 2.752947,-2.071994 3.5,-2.2239959 C 29.888775,6.426447 31.175,6.0491241 32,5.7399535 33.48018,5.1852527 35.373897,4.660474 41.755326,3.0365986 43.545756,2.58099 45.190272,2.49887 45.409807,2.8541097 46.162487,4.0720559 65.91573,3.1307621 86.849704,0.87938994 93.102987,0.20687227 97.152115,0.2059791 99.076126,0.87669299 100.77941,1.4704602 107.0025,1.6409268 114.33225,1.2945974 c 10.08387,-0.47646103 12.96079,-0.29489456 15.51468,0.9791527 1.82233,0.9090983 3.37805,1.1712432 3.71503,0.6259968 0.31887,-0.5159445 3.36038,-0.9118172 6.7589,-0.8797172 3.39853,0.0321 7.07914,0.047283 8.17914,0.03374 1.1,-0.013543 7.175,0.013401 13.5,0.059875 6.325,0.046474 25.45,-0.2764442 42.5,-0.7175965 17.05,-0.4411522 33.475,-0.64760303 36.5,-0.45877959 6.49986,0.40572769 5.46607,0.41138069 52,-0.28434354 21.48078,-0.32115708 37.73446,-0.16167194 39.5,0.38758403 3.1664,0.9850591 6.63888,1.1418673 26,1.1740923 15.99317,0.026619 17.58095,0.010472 20.5,-0.2084737 1.375,-0.1031333 9.13218,0.043937 17.23817,0.3268231 9.23606,0.3223233 14.96702,0.1440686 15.35115,-0.4774801 0.33714,-0.5455001 1.35496,-0.6813859 2.26183,-0.3019685 0.90687,0.3794174 9.74885,0.8369153 19.64885,1.0166621 9.9,0.1797468 20.925,0.3929483 24.5,0.4737812 3.575,0.080833 10.775,0.1365758 16,0.1238732 5.225,-0.012703 11.075,-0.013286 13,-0.0013 1.925,0.011989 9.35,-0.029119 16.5,-0.091352 24.65895,-0.2146277 50.00563,0.5698236 52,1.6093422 1.1,0.5733488 4.04651,0.9085908 6.54779,0.7449821 5.5328,-0.3618992 7.88582,0.7406487 6.12042,2.8678234 -0.97793,1.1783338 -0.70327,1.7773057 1.4671,3.1993827 2.59375,1.699489 2.71856,1.685629 4.35481,-0.483599 3.07184,-4.0724289 14.37725,6.260023 12.42267,11.353562 -0.31518,0.821345 0.11104,2.98735 0.94716,4.813345 1.59069,3.473912 2.27143,12.242055 3.03268,39.061732 0.24575,8.657957 0.96056,17.298421 1.58848,19.201031 0.81408,2.466674 0.83711,4.028364 0.0803,5.442519 -1.56739,2.928695 -1.30643,5.615216 1.02783,10.58114 1.43199,3.04642 1.88391,5.37941 1.43658,7.41611 -0.42214,1.92198 -0.0783,4.0822 0.9736,6.11631 1.15938,2.24199 1.32491,3.50792 0.57658,4.4096 -1.16108,1.39901 -1.79891,28.76082 -1.12107,48.09155 0.32244,9.19526 0.0906,12.52006 -0.99202,14.22504 -1.11484,1.75577 -1.15446,2.48339 -0.18785,3.45 0.68212,0.68212 1.22496,3.76908 1.22496,6.96594 0,3.15754 0.42312,6.00249 0.94027,6.32211 0.58185,0.3596 0.55446,1.68788 -0.0719,3.48453 -0.79575,2.28267 -0.65251,3.45227 0.66996,5.47061 1.18354,1.80632 1.45488,3.38442 0.91548,5.32448 -1.05568,3.79696 -1.08235,3.95481 -1.86715,11.05165 -0.96983,8.77005 -0.81592,28.20719 0.23417,29.57359 0.96613,1.25713 0.81052,11.93534 -0.26685,18.31225 -0.43693,2.58618 -0.29648,4.36094 0.37811,4.77786 0.76367,0.47198 0.76416,1.24089 0.002,2.66557 -0.58936,1.10125 -1.29813,7.93644 -1.57503,15.18932 -0.51691,13.53951 -1.30658,41.94307 -1.3082,47.05465 -5e-4,1.57718 -0.48394,3.44962 -1.07431,4.16097 -0.61994,0.74699 -0.6889,1.53102 -0.16322,1.8559 0.97669,0.60363 0.69865,32.97854 -0.29707,34.58964 -0.92652,1.49915 -0.66658,33.17242 0.29977,36.52589 0.50728,1.7604 0.47372,4.2396 -0.0812,6 -0.52014,1.65 -1.13242,12.9 -1.36062,25 -0.56412,29.91234 -1.11248,39.48006 -2.34805,40.96883 -0.74029,0.892 -0.63874,2.04874 0.34658,3.94796 1.0412,2.00692 1.14952,3.62168 0.4283,6.38476 -1.81048,6.93614 -1.99428,8.96832 -0.98219,10.85943 0.67318,1.25785 0.67909,2.48528 0.0177,3.6672 -0.68088,1.21666 -0.63606,2.20807 0.1422,3.14582 0.85375,1.02871 0.81982,1.87621 -0.13644,3.40742 -1.03221,1.65284 -1.02752,2.71658 0.0248,5.6268 1.02445,2.83305 1.04037,3.8987 0.0756,5.06114 -1.41182,1.70114 -2.10658,6.35603 -1.1739,7.86514 0.59061,0.95562 1.18002,3.70184 1.30182,6.0655 0.0283,0.55 -0.43851,2.95856 -1.03745,5.35235 -0.70338,2.81126 -0.78816,6.59757 -0.23941,10.69324 0.55501,4.14247 0.48609,6.96729 -0.19878,8.14764 -0.57659,0.99372 -1.10016,4.62315 -1.16349,8.0654 -0.13747,7.47239 -0.62595,8.14827 -4.31431,5.9695 -2.81381,-1.66216 -2.82814,-1.65674 -5.21923,1.97417 -4.06713,6.176 -11.74182,9.56546 -21.14768,9.3397 -0.9625,-0.0231 -2.5375,-0.0623 -3.5,-0.0871 -2.17619,-0.056 -5.277,0.49598 -7.25,1.29068 -3.43628,1.38409 -153.65863,3.49061 -155.28496,2.17752 z m 165.97768,-36.73322 c 2.60185,-1.60803 7.02282,-12.16023 6.25202,-14.92262 -0.41939,-1.50299 -0.54725,-15.22799 -0.28414,-30.5 0.26312,-15.27201 0.40638,-28.21729 0.31836,-28.76729 -0.77645,-4.85197 -0.91828,-46.87522 -0.16137,-47.81396 0.52597,-0.65232 0.85082,-6.81104 0.7219,-13.68604 -0.12893,-6.875 0.19719,-13.05666 0.72471,-13.73701 0.53778,-0.69359 0.61836,-2.45082 0.18343,-4 -0.42664,-1.51965 -0.66089,-3.21299 -0.52056,-3.76299 0.14033,-0.55 0.15797,-5.5 0.0392,-11 -0.61106,-28.29782 0.17557,-43.09396 2.38547,-44.86965 1.41105,-1.1338 1.32858,-2.53484 -0.93525,-15.88761 -0.45131,-2.66195 -0.15993,-4.48538 0.99953,-6.25494 1.54819,-2.36282 1.51565,-2.66119 -0.60259,-5.52627 -2.23914,-3.02859 -2.23914,-3.02859 -0.45097,-9.97008 1.03942,-4.03493 1.48396,-7.89407 1.06165,-9.21646 -0.39958,-1.25125 -0.68544,-7.12497 -0.63525,-13.05272 0.0567,-6.69848 -0.39248,-11.92822 -1.18684,-13.81744 -0.95468,-2.27051 -1.02929,-4.47769 -0.29486,-8.72227 1.86272,-10.7654 1.45846,-47.36295 -0.55717,-50.44035 -1.30205,-1.98792 -1.75,-4.74135 -1.75,-10.75669 0,-5.814 0.49153,-8.98374 1.75,-11.28518 1.88986,-3.45612 2.41576,-13.51108 2.49483,-47.70034 0.011,-4.77369 -0.86828,-16.05586 -1.72847,-22.17727 -0.43709,-3.11049 -0.11059,-3.99675 2.11831,-5.75 1.64331,-1.29263 2.08247,-2.07273 1.16686,-2.07273 -1.85208,0 -1.66099,3.24582 -2.17143,-36.882431 -0.5303,-41.690388 0.19967,-39.661886 -15.72826,-43.70698 -3.52101,-0.894204 -6.95135,-2.071718 -7.62298,-2.616698 C 539.04452,32.792302 521.81221,32.326782 456.5,31.53066 437.25,31.296012 420.825,31.050851 420,30.985857 c -0.825,-0.06499 -7.35,0.175394 -14.5,0.534195 -7.15,0.358801 -26.05,0.771357 -42,0.916792 -17.94081,0.163587 -30.00951,0.678392 -31.64718,1.349947 -1.45594,0.597037 -2.83931,0.893386 -3.07414,0.658553 -0.23483,-0.234832 -3.7686,-0.67545 -7.85283,-0.979151 -4.08422,-0.303701 -9.11567,-0.711113 -11.181,-0.90536 -2.06534,-0.194246 -3.95988,-0.02192 -4.2101,0.382944 -0.25022,0.404866 -3.2058,0.359917 -6.56796,-0.09989 -3.71146,-0.507574 -6.81835,-0.458519 -7.90841,0.124868 -0.98748,0.52848 -2.06106,0.695223 -2.38575,0.370539 -0.32468,-0.324685 -5.44635,-0.725283 -11.38148,-0.890218 -5.93513,-0.164936 -14.20936,-0.797764 -18.38718,-1.406284 -4.17781,-0.608521 -12.05281,-0.859569 -17.5,-0.557886 -5.44718,0.301683 -13.86507,0.762795 -18.70642,1.024692 -4.84135,0.261897 -9.58223,0.8935 -10.53529,1.403561 -2.93619,1.571402 -29.24398,0.215391 -32.16226,-1.657774 -2.36418,-1.517499 -2.42157,-1.509038 -1.05638,0.155726 0.79399,0.968224 1.91899,5.659315 2.5,10.424646 L 182.5,50.5 195,51.104009 c 24.1703,1.167925 25.21252,2.585241 25.81599,35.10708 C 221.47019,121.46641 218.34037,131 206.1121,131 c -10.83947,0 -11.45865,-18.82119 -0.6724,-20.43869 5.75269,-0.86267 6.07143,-2.30731 4.91567,-22.279755 L 209.5,73.5 196.89633,73.221216 c -17.12692,-0.378836 -15.43401,-5.59942 -15.20678,46.894494 0.23576,54.46778 -1.22209,50.24911 17.02693,49.27162 20.32498,-1.08869 22.68793,3.35625 22.10132,41.57459 C 220.22636,249.49442 222.06404,248 175.27217,248 c -44.8848,0 -42.48447,2.09938 -43.08639,-37.6843 -0.58839,-38.88999 0.33444,-40.59482 22.28128,-41.16232 18.15422,-0.46942 16.10913,5.39673 17.01169,-48.79641 0.89261,-53.595459 2.53721,-48.558052 -15.71575,-48.137504 -14.63841,0.33727 -13.52006,-1.333145 -13.66332,20.408089 -0.10963,16.638005 -0.10174,16.660835 6.14783,17.786905 9.66742,1.7419 9.41198,19.58554 -0.28037,19.58554 -13.5797,0 -16.55423,-8.68813 -15.78134,-46.094706 0.59238,-28.670393 4.27845,-33.571972 24.52325,-32.610014 13.05065,0.620119 15.2816,-1.07315 15.29711,-11.61038 0.003,-2.301695 0.68173,-5.480269 1.50742,-7.063498 1.34028,-2.569949 1.33876,-2.743741 -0.0142,-1.620857 -0.95249,0.790496 -3.16903,1.071361 -5.96656,0.75604 -2.44809,-0.275936 -4.58314,-0.105514 -4.74455,0.378715 -0.16141,0.484229 -6.36729,1.078643 -13.79085,1.320919 -7.42356,0.242277 -16.19738,0.671968 -19.49738,0.954869 -3.3,0.282902 -14.1,0.787171 -24,1.120599 -9.9,0.333428 -19.794084,0.758991 -21.986853,0.945697 -2.192768,0.186705 -4.672499,-0.02748 -5.510511,-0.475973 -0.838013,-0.448491 -3.768929,-0.40927 -6.513148,0.08716 C 68.605053,36.61036 63.546716,36.62747 59.5,36.129122 53.94571,35.445119 52.33484,35.549296 51.70031,36.633541 51.26048,37.385093 50.345004,38 49.665917,38 47.625122,38 44.948759,43.619876 44.317811,49.230052 43.991835,52.128523 43.395619,54.95 42.992886,55.5 c -2.001619,2.733554 -3.003378,9.389665 -3.536801,23.5 -0.836033,22.1151 -0.83835,22.46755 -0.355092,54 0.105365,6.875 0.294498,22.4 0.420297,34.5 0.125798,12.1 0.706325,23.77061 1.29006,25.93469 0.583734,2.16407 0.745701,4.63907 0.359925,5.5 -0.871873,1.94572 -0.764786,11.60958 0.216806,19.56531 0.40716,3.3 0.273623,9.825 -0.296749,14.5 -0.570372,4.675 -1.046244,11.875 -1.057494,16 -0.02556,9.37108 -0.03893,10.11982 -0.5181,29 -0.671687,26.4659 -0.555591,37.66809 0.464959,44.86389 0.692417,4.88218 0.654328,7.88463 -0.128511,10.13029 -0.892602,2.56051 -0.760291,4.35517 0.669151,9.07629 1.468099,4.8488 1.608795,6.98886 0.799256,12.15712 -0.540369,3.44982 -0.853858,17.92742 -0.696642,32.17242 0.204415,18.52157 -0.05027,26.49826 -0.894006,28 -1.629016,2.89944 -1.659942,23.08177 -0.04279,27.92517 0.854941,2.56057 1.069917,6.3625 0.650254,11.5 -1.166122,14.27565 -1.281802,74.44982 -0.151246,78.67482 0.588693,2.2 1.155094,6.025 1.258669,8.5 0.405452,9.68855 0.612855,10.84788 2.305169,12.88522 1.776931,2.13921 6.75014,3.34983 13.25,3.22541 1.925,-0.0368 13.625,-0.20309 26,-0.36943 12.375,-0.16635 23.0312,-0.63338 23.68044,-1.03785 0.64923,-0.40447 4.47423,0.15979 8.5,1.25391 4.02576,1.09412 9.34456,2.21012 11.81956,2.48 2.475,0.26988 5.90297,0.77424 7.61772,1.1208 1.9794,0.40005 4.20922,0.0657 6.10721,-0.91582 2.3416,-1.21088 5.24349,-1.44153 13.38971,-1.06422 5.72012,0.26494 16.23547,0.04 23.36745,-0.49983 10.91516,-0.82621 13.22108,-0.75181 14.57131,0.47014 1.92208,1.73945 4.13316,1.86511 5.67572,0.32255 0.77954,-0.77954 3.86016,-0.9107 9.95,-0.42365 9.39467,0.75136 13.27331,0.86283 22.82088,0.65584 7.56581,-0.16403 21.75414,0.68522 31.5,1.88546 10.76256,1.32544 20.90896,1.18716 25.30893,-0.34493 2.7305,-0.95077 5.27868,-1.07835 9,-0.4506 10.82028,1.82526 30.05181,2.68431 34.97298,1.56219 2.83193,-0.64573 24.5751,-0.72597 71.21809,-0.26282 26.03979,0.25856 41.07431,0.32451 49.5,0.21713 4.68885,-0.0598 39.3656,1.39266 39.67936,1.66194 0.62055,0.53261 62.12518,-0.13261 63.01336,-0.68153 z M 331,551.89131 c -8.77306,-1.39554 -9.83092,-1.78323 -10.4845,-3.84248 -0.33979,-1.07059 -1.4265,-2.20319 -2.4149,-2.5169 -2.9632,-0.94048 -4.23839,-5.40949 -4.19437,-14.69948 0.095,-20.0501 1.64824,-21.04218 33.38754,-21.32547 24.42442,-0.21799 23.58681,0.0502 24.39829,-7.81224 l 0.57695,-5.59015 -23.56176,-0.3023 c -30.80191,-0.39518 -34.72376,-3.22361 -34.69251,-25.02017 0.0264,-18.44649 1.65525,-19.40903 32.10312,-18.9714 24.13956,0.34696 24.88214,0.15893 24.88214,-6.30036 0,-1.84073 0.27314,-4.05859 0.60699,-4.92857 0.5415,-1.41112 -1.6434,-1.58239 -20.25,-1.58737 -32.81621,-0.009 -37.88653,-3.34046 -37.18431,-24.43366 0.68958,-20.71324 -1.95195,-19.70969 50.66394,-19.24777 l 40.18598,0.3528 4.43645,4.63013 c 5.95817,6.21829 5.70943,2.78611 5.35416,73.87982 l -0.31321,62.67574 9,0.67322 c 4.95,0.37027 13.5,0.2413 19,-0.28659 5.70957,-0.54801 14.93399,-0.6204 21.5,-0.16874 13.85777,0.95326 71.47642,1.18535 75.875,0.30563 3.07447,-0.61489 3.125,-0.72 3.125,-6.5 V 525 l -30.75,-0.002 c -84.4859,-0.007 -83.02653,0.40538 -83.98143,-23.7162 -0.87014,-21.98044 -6.01584,-20.26855 60.94625,-20.27577 C 548.05608,480.99923 543,481.83719 543,472.09156 v -5.03991 l -52.36824,-0.27583 -52.36824,-0.27582 -4.23348,-4.23407 c -5.06892,-5.06963 -5.97382,-8.30416 -6.00618,-21.46888 -0.0462,-18.78825 -3.98917,-17.65258 60.25104,-17.35379 58.48066,0.272 54.95361,0.76509 54.06947,-7.55909 l -0.59648,-5.61583 -50.39815,-0.17484 c -55.14295,-0.1913 -52.33856,0.0538 -57.4451,-5.0207 C 428.74075,399.94131 428,398.01527 428,389.72006 v -7.41142 l -12.25,-0.55183 c -6.7375,-0.30351 -28.45,-0.3534 -48.25,-0.11087 -55.08496,0.67474 -53.46907,1.97261 -53.48899,-42.96168 -0.007,-15.21567 0.38946,-25.56402 1.02417,-26.75 1.63566,-3.05625 7.73406,-2.6714 8.96482,0.56574 0.52277,1.375 1.61008,2.5 2.41623,2.5 2.63777,0 2.8311,1.93124 2.65476,26.51922 -0.16252,22.66055 -0.0519,24.34571 1.62732,24.79163 3.08993,0.82052 94.73194,0.22463 96.05169,-0.62457 0.76948,-0.49512 1.25,-3.08815 1.25,-6.7453 V 353 h -35.77749 c -39.53357,0 -36.78093,0.42819 -43.85436,-6.82189 -9.43097,-9.66651 -8.85301,-30.97073 0.95285,-35.12295 3.52726,-1.4936 157.14755,-2.5868 168.3277,-1.19787 2.28723,0.28415 11.35129,10.13221 11.40158,12.38777 0.74472,33.39621 4.23211,31.03837 -45.65072,30.8647 -42.59146,-0.14829 -40.71922,-0.52088 -40.19767,7.99969 l 0.29811,4.87036 37,0.49139 c 20.35,0.27027 42.67737,0.21069 49.61638,-0.1324 l 12.61639,-0.62379 -0.50593,-24.63731 c -0.67136,-32.69288 1.30249,-37.14169 11.75658,-26.49786 5.16215,5.25584 4.79084,1.47466 3.87108,39.42016 -0.74007,30.53254 5.85066,27.45125 -59.23085,27.69149 C 438.66585,381.91282 444,381.20219 444,388.96862 V 395 h 49.4349 c 54.02006,0 52.658,-0.1424 58.96498,6.16459 4.10012,4.10012 4.10012,4.10012 4.10012,18.43205 0,20.91935 5.14456,19.30119 -61.55,19.35981 -37.15595,0.0327 -49.85016,0.34371 -50.75,1.24355 -1.30554,1.30554 -1.62288,9.62423 -0.43469,11.39477 0.51762,0.7713 15.87299,1.06677 51.97096,1 l 51.23626,-0.0948 5.26374,5.26381 c 5.26373,5.2638 5.26373,5.2638 5.26373,17.67812 0,21.75144 3.68305,20.49207 -59.85426,20.46627 C 439.26193,495.88449 443,495.28517 443,504.66949 v 5.35951 l 49.02975,-0.51549 c 54.91778,-0.57739 52.48764,-0.84713 59.66216,6.62228 9.02777,9.39884 9.05161,28.95844 0.0419,34.40815 C 548.61023,552.43333 546.23326,552.5 482,552.5 c -73.15555,0 -69.78194,0.24418 -75.74129,-5.4821 -7.59951,-7.30229 -7.15122,-2.41477 -6.67302,-72.75334 0.23609,-34.72551 0.0884,-63.33873 -0.32822,-63.58493 -0.41661,-0.2462 -16.39497,-0.20996 -35.50747,0.0805 L 329,411.28835 v 5.70027 5.70028 l 14.25,0.65189 c 7.8375,0.35854 17.99208,0.65354 22.56574,0.65555 9.19436,0.004 10.84802,0.60076 16.03243,5.78516 8.92182,8.92182 6.654,36.928 -3.02125,37.31049 -1.2798,0.0506 -11.10192,0.0585 -21.82692,0.0176 -27.23616,-0.10387 -27.42304,-0.0558 -27.7999,7.15341 L 328.90019,480 h 17.71799 c 36.17473,0 46.84816,9.87882 39.47756,36.53855 -2.38007,8.60883 -2.53952,8.6502 -31.90079,8.2761 L 329.5,524.5 l -0.29014,6.5 -0.29014,6.5 24.09831,-0.35483 24.09831,-0.35483 4.43431,4.35483 C 392.3134,551.71502 365.59638,557.39457 331,551.89131 Z m 66.29987,-213.77928 c 19.91007,0.0481 37.55013,0.0682 39.20013,0.0445 1.65,-0.0237 19.7625,-0.0933 40.25,-0.15473 L 514,337.89009 v -6.44504 C 514,325 514,325 510.25,324.87743 469.45629,323.54406 359.04329,324.72515 358.5656,326.5 c -1.27501,4.73725 -0.62531,12.73689 0.98427,12.11924 0.85243,-0.32711 17.83993,-0.55536 37.75,-0.50721 z M 169.72064,542.8489 C 159.50556,539.97991 158,534.82759 158,502.73868 158,462.84943 157.51928,463.5 186.99452,463.5 c 24.09528,0 21.94707,0.89746 23.18806,-9.68732 2.54845,-21.73655 -0.0686,-28.89744 -10.45434,-28.60567 -3.97553,0.11169 -16.45324,0.0929 -27.72824,-0.0417 -31.67224,-0.37808 -28.47836,-6.16921 -28.58746,51.83464 -0.10556,56.12064 -0.95801,65 -6.24019,65 -4.72128,0 -4.67235,1.29332 -4.67235,-123.5 0,-149.01813 -5.82561,-130.33092 41.0776,-131.76739 52.50862,-1.60816 47.84947,-11.28635 47.5473,98.76739 -0.29314,106.76484 2.05437,98.86976 -29.30287,98.55071 -23.86538,-0.24283 -22.27853,-1.37726 -23.26645,16.63309 -1.22541,22.33992 -2.15742,21.60988 26.43245,20.70444 25.77104,-0.81616 26.55727,-0.46585 25.80274,11.49649 -0.57695,9.14703 -3.56056,11.71572 -12.23816,10.53622 -7.48765,-1.01775 -17.70302,-1.08932 -27.55261,-0.19305 -4.46963,0.40672 -9.02705,0.25358 -11.27936,-0.379 z m 37.57515,-140.12195 c 3.22462,-2.11427 4.32945,-31.95886 1.29541,-34.99289 -1.68591,-1.68591 -57.95599,-3.30626 -61.95936,-1.78418 -4.27156,1.62404 -5.67569,30.30077 -1.72302,35.18934 3.10687,3.84249 56.86157,5.21053 62.38697,1.58773 z m 0.68235,-57.94537 c 2.90579,-1.8147 3.15429,-35.05313 0.27186,-36.36263 -2.16862,-0.98522 -57.16512,-1.84506 -61.84593,-0.96693 -3.40407,0.63861 -3.40407,0.63861 -3.39042,16.34329 0.0187,21.53594 -0.6379,20.18259 9.85298,20.3074 4.74835,0.0565 16.73337,0.68606 26.63337,1.39905 19.41886,1.39852 25.32472,1.24916 28.47814,-0.72018 z M 107.40499,540.89493 c -2.49207,-2.75381 -3.03035,-186.72896 -0.56343,-192.57307 1.70847,-4.04737 3.46903,-4.70071 6.35957,-2.36002 3.1993,2.59073 3.70498,189.48044 0.52582,194.33225 -2.13192,3.25359 -3.77964,3.41018 -6.32196,0.60084 z m 142.44854,0.5948 c -10.60098,-3.39917 -12.60746,-9.17088 -13.52742,-38.91216 -1.08683,-35.13577 4.11899,-42.629 27.46885,-39.53853 9.94545,1.31633 21.53198,0.76444 23.8202,-1.13461 1.57518,-1.30729 2.03692,-32.32771 0.51688,-34.72503 -0.65701,-1.03619 -5.15675,-1.26774 -20.89336,-1.07515 C 237.1151,426.47292 237.5,426.97904 237.5,387 c 0,-28.12686 0.85046,-34.50639 5.33902,-40.04953 2.14294,-2.64641 1.53266,-2.61289 26.75899,-1.46974 21.43468,0.97133 19.56483,2.26005 20.18788,-13.91361 1.33468,-34.6463 -6.4722,-56.87918 -13.23851,-37.7014 C 270.10612,312.12218 236,314.33798 236,296.5 c 0,-8.34646 4.12781,-10.75305 16.88996,-9.84716 10.79376,0.76616 12.5846,-0.0636 17.08937,-7.9185 7.51236,-13.09912 -0.69107,-32.27992 -12.8695,-30.09072 C 243.52329,251.08593 237,247.76545 237,238.4073 c 0,-18.04714 34.28464,-13.93961 41.50738,4.97286 4.8367,12.66472 10.45392,-4.49808 10.47581,-32.00772 0.0211,-26.5584 2.82078,-24.04543 -24.95186,-22.39684 -24.27002,1.44067 -24.57902,1.40313 -26.43299,-3.21154 -2.29881,-5.72193 -1.672,-127.476625 0.67471,-131.058089 2.12828,-3.248096 4.73673,-3.459917 7.32196,-0.594584 1.76762,1.959138 1.90499,3.93812 1.90499,27.444504 0,30.163569 -2.2743,26.976249 20.32207,28.480369 22.57034,1.50239 20.59023,3.16332 21.0147,-17.627314 0.41567,-20.359693 -1.64561,-22.960738 -15.44274,-19.48658 C 265.4742,74.916603 263,72.406149 263,62.376024 263,53.357616 266.11321,51 278.02195,51 c 18.99743,0 23.09654,7.888336 21.52526,41.423293 -1.71989,36.706657 -2.66001,37.914697 -29.12114,37.419937 -24.01744,-0.44907 -22.81383,-1.40493 -23.21042,18.43303 -0.42908,21.4628 0.5203,22.31177 22.92535,20.50057 25.06734,-2.02642 28.33126,0.76307 29.51298,25.22317 0.99136,20.51997 -0.99386,41.29203 -5.60036,58.59865 l -4.01881,15.09864 3.96569,11.80421 c 12.07402,35.93928 6.9106,90.01717 -8.29437,86.86929 -5.91656,-1.2249 -36.85321,-0.75084 -37.67405,0.5773 -1.35762,2.19668 -0.60829,34.65165 0.84036,36.3977 1.72032,2.0735 12.6232,2.19153 25.25111,0.27338 20.8154,-3.16182 24.64284,2.35562 25.58416,36.88083 0.78132,28.65689 -1.01247,38.202 -8.00626,42.60306 -3.4199,2.15207 -3.28271,2.15071 -31.25575,0.31 -14.13086,-0.92986 -13.56193,-1.80867 -13.21839,20.41821 0.31934,20.66117 -0.95522,19.10899 14.06343,17.12668 C 285.9514,517.70298 299,521.23337 299,531.16044 c 0,9.84783 -3.54413,12.7453 -13.83892,11.31387 -7.28958,-1.01357 -13.8232,-1.06882 -23.16108,-0.19585 -5.51856,0.51591 -8.72756,0.30754 -12.14647,-0.78873 z m -168.4124,-0.90902 c -2.543664,-1.85983 -3.616491,-238.88335 -1.113963,-246.11173 2.107029,-6.08601 7.875585,-8.71524 17.256281,-7.86519 l 7.180262,0.65066 0.72527,-12.07108 c 1.0024,-16.68334 0.0302,-25.80958 -2.83118,-26.57719 -1.18679,-0.31838 -11.005298,-0.58502 -21.818906,-0.59253 C 53.271042,247.99451 53.5,248.32543 53.5,208.5 c 0,-34.73008 2.319081,-39.89838 17.680321,-39.40235 L 78.5,169.33402 v -56.45871 c 0,-61.856382 0.06161,-62.514665 5.773401,-61.686579 5.207453,0.754968 7.128597,39.852462 4.96156,100.973439 C 88.045733,185.70415 86.954847,187.94886 71,189.68424 l -7.5,0.81576 0.372674,18 c 0.20497,9.9 0.569028,18.3375 0.809017,18.75 0.239989,0.4125 8.622285,0.75988 18.627326,0.77196 30.729683,0.0371 32.695753,2.03985 32.683393,33.29314 -0.0155,39.09124 -1.71166,43.42245 -17.714239,45.23294 -9.434069,1.06734 -8.819777,-4.80906 -8.514619,81.45196 0.363414,102.72855 -0.603104,149.06221 -3.16854,151.89585 -2.255471,2.49128 -2.617494,2.53938 -5.153882,0.68486 z M 54.035184,539.06574 C 51.575346,534.46949 52.732618,290.30069 55.222506,288.5567 58.082663,286.55337 58.59249,286.59249 61,289 c 2.767825,2.76783 3.199226,245.84285 0.443296,249.77749 -1.928713,2.75363 -6.003824,2.91219 -7.408112,0.28825 z M 446.3965,292.88104 c -6.45806,-0.79338 -7.97426,-1.65314 -13.68839,-7.762 L 428,280.08568 V 238.4771 c 0,-49.90862 0.46144,-51.62311 11,-40.87077 l 4.5,4.59129 -0.29317,23.65119 L 442.91366,249.5 H 478.20683 513.5 l 0.29569,-6.75 0.29569,-6.75 h -20.98059 c -23.1032,0 -23.94727,-0.15686 -29.38413,-5.46064 -5.87038,-5.72668 -6.57469,-7.37825 -7.26633,-17.03936 -1.42325,-19.8802 -0.38717,-20.49382 35.85978,-21.23801 l 27.33253,-0.56117 4.67368,4.47817 C 534.19263,205.63258 532.45556,206.38971 499.5,207 l -27,0.5 -0.29679,6.79838 -0.2968,6.79838 21.33441,-0.19723 c 23.48843,-0.21714 23.64942,-0.18435 29.97695,6.10523 5.00209,4.97211 5.78223,7.48961 5.78223,18.65921 0,19.54167 0.88771,19.17513 -46.18983,19.0718 C 441.39931,264.64488 443,264.35227 443,272.01319 v 4.7683 l 19.75,0.74923 c 10.8625,0.41208 27.74673,0.47589 37.52051,0.1418 18.6301,-0.63681 22.12767,-0.14404 23.21131,3.2702 0.35912,1.1315 1.2818,2.05728 2.05038,2.05728 5.15012,0 3.57669,8.55612 -1.73618,9.44119 -4.76898,0.79446 -71.42941,1.17329 -77.39952,0.43985 z M 322.272,291.7668 c -1.2254,-0.57904 -2.48592,-1.86543 -2.80115,-2.85864 -0.31524,-0.99322 -1.44909,-2.08387 -2.51968,-2.42366 -2.67729,-0.84974 -3.74324,-5.43215 -1.62407,-6.98173 1.61807,-1.18317 25.68814,-2.49337 45.9229,-2.49971 L 371,277 v -6.48087 c 0,-6.48087 0,-6.48087 -4.25,-6.03258 -32.02702,3.37821 -45.38003,0.45528 -51.65777,-11.30771 -11.58167,-21.70133 -0.90962,-32.07116 33.19845,-32.25828 L 371,220.79597 V 214.39798 208 h -20.53212 c -32.265,0 -44.92468,-13.08384 -35.1059,-36.28212 3.0193,-7.13351 3.13561,-7.16295 30.49062,-7.71788 l 24.6474,-0.5 0.29772,-6.25 0.29771,-6.25 -13.79771,-0.0357 c -35.33417,-0.0914 -41.35045,-2.67654 -42.82399,-18.40138 -2.36657,-25.25488 0.0466,-27.0834 34.75394,-26.33357 l 21.72766,0.46941 -0.22766,-6.924986 L 370.5,92.848817 351,93.016397 c -10.725,0.09217 -20.74755,0.126186 -22.27234,0.07559 -11.15833,-0.370243 -18.96169,-22.469643 -13.10371,-37.11017 3.55585,-8.886951 29.45807,-10.702255 37.85849,-2.653236 8.46981,8.115508 5.41278,11.126606 -11.4465,11.274514 C 328.5982,64.720987 328,64.926876 328,69.434017 c 0,4.911218 1.11789,9.611159 2.13632,8.981735 0.49104,-0.303482 8.98984,-0.524767 18.88622,-0.491744 23.08844,0.07704 22.54816,0.435913 21.64194,-14.375079 C 369.98334,52.416543 371.05502,49 375.22812,49 c 3.35843,0 10.75631,8.366584 10.84718,12.267559 1.43763,61.711941 1.75643,61.058241 -29.5753,60.643831 -29.86982,-0.39508 -27.35665,-1.00133 -27.31286,6.58861 l 0.0375,6.5 6.13768,0.1151 c 3.37572,0.0633 12.52444,0.0199 20.33049,-0.0964 24.54163,-0.36576 30.66858,4.60522 30.13722,24.45125 -0.51609,19.27575 -1.20496,19.67657 -33.46527,19.47188 -12.37343,-0.0785 -22.77683,0.13694 -23.11867,0.47877 -1.41312,1.41313 -1.5152,12.57653 -0.11628,12.71762 0.7536,0.076 10.59519,0.18851 21.87019,0.25 30.5254,0.16649 46.98127,19.06113 33.4393,38.39502 -3.81303,5.44385 -23.79406,7.48725 -46.17897,4.72259 C 329.66005,234.44361 329,234.98258 329,243.06739 V 250 h 21.4349 c 23.55159,0 24.39882,0.15409 29.79548,5.41892 7.81866,7.62765 9.21722,27.58803 2.40997,34.39527 -2.88335,2.88336 -54.84204,4.56396 -60.36835,1.95261 z M 405.81805,290.5 c -0.6265,-1.375 -1.72602,-2.5 -2.44338,-2.5 -3.49068,0 -3.7209,-3.54742 -3.89384,-60 -0.21572,-70.4127 -3.71138,-63.24722 31.22222,-64 26.28211,-0.56635 25.40659,-0.27696 26.099,-8.62658 l 0.47244,-5.69696 -21.88724,0.67064 C 410.00526,151.12482 399,147.97068 399,139.9184 c 0,-4.40838 2.8527,-4.86789 29.44105,-4.7423 C 457.7501,135.31454 457,135.51937 457,127.37756 V 122 l -22.06574,0 c -24.03279,0 -23.91496,0.0242 -29.82868,-6.13021 -4.76438,-4.9583 -4.83109,-5.36039 -5.71214,-34.42873 -1.07562,-35.4877 -10.10976,-31.815937 77.96809,-31.688744 l 70.86154,0.102331 4.60988,4.609882 c 10.03471,10.034713 8.73631,10.230295 -69.20688,10.424823 -35.74077,0.0892 -65.91536,0.396183 -67.05465,0.682182 C 414.5615,66.076094 414.5,66.692796 414.5,86.342975 v 20.251445 l 4,-0.0235 c 2.2,-0.0129 12.89339,0.0784 23.76308,0.20279 L 462.02617,107 l 5.05724,4.75 c 5.05724,4.75 5.05724,4.75 4.39261,12.38954 C 470.60557,134.14496 471.54438,136 477.47848,136 484.66065,136 485,134.92913 485,112.26433 V 92.973674 l -24.39063,0.240177 -24.39064,0.240177 -4.10936,-4.109367 C 421.91503,79.150325 425.1672,77.852887 460.02654,78.207251 L 488.82472,78.5 493.41885,83 c 5.18072,5.07456 6.56749,8.778411 6.57557,17.56232 l 0.006,6.06233 21,0.22503 21,0.22504 v -7.16619 -7.166191 l -5,0.663273 C 522.71163,95.301031 503.70876,82.50729 516.31665,79.480486 542.98283,73.078682 557,80.831585 557,101.98246 c 0,19.84333 -1.21824,20.61912 -31.66774,20.16641 -25.16876,-0.3742 -24.3349,-0.65187 -25.82369,8.59893 -0.9209,5.72214 -1.03232,5.70081 22.37883,4.28368 22.90959,-1.38677 25.3704,-1.00898 31.16377,4.78439 9.65881,9.65882 5.96614,11.31521 -23.95082,10.74337 -29.82613,-0.57009 -31.40516,-0.0314 -29.51048,10.06813 0.65804,3.50762 0.65804,3.50762 21.78408,3.30702 12.4661,-0.11837 22.15154,0.21503 23.62775,0.81335 3.31375,1.34308 11.98865,10.6849 12.03423,12.95942 0.89295,44.55172 0.69167,110.22251 -0.34418,112.29284 -1.66518,3.32819 -7.70669,3.60398 -9.10751,0.41576 -0.50366,-1.14634 -1.85366,-2.49634 -3,-3 C 542.50913,286.50401 542.5,286.2646 542.5,232.74962 v -53.75039 l -23.28869,3.9e-4 -23.28869,3.8e-4 -5.21131,-4.9955 C 485.5,169.009 485.5,169.009 485.15347,159.5045 L 484.80694,150 h -5.20347 C 472.50759,150 472,150.7711 472,161.55078 c 0,16.58882 -1.05181,17.4467 -21.39922,17.45377 -7.20543,0.002 -18.16328,0.29625 -24.35078,0.65279 L 415,180.30558 v 52.87933 C 415,291.27722 414.84244,293 409.52959,293 c -1.77354,0 -2.92623,-0.77642 -3.71154,-2.5 z M 106.81726,186.80993 c -5.24113,-9.19079 -1.12592,-136.423319 4.38688,-135.63221 7.74012,1.110737 7.35888,136.73736 -0.38688,137.63221 -1.95237,0.22556 -3.04137,-0.31894 -4,-2 z M 54.556704,127.77749 C 52.56507,124.93404 52.194586,58.398678 54.149704,54.684259 56.312484,50.575314 58.128754,50.128754 61,53 c 1.924409,1.924409 2,3.333333 2,37.277494 C 63,127.97126 62.744636,130 58,130 c -1.037626,0 -2.587109,-1.00013 -3.443296,-2.22251 z m 143.308256,99.56765 12.17896,-0.65485 -0.27196,-18.09515 L 209.5,190.5 177.0641,190.2359 c -38.14442,-0.31058 -34.13308,-2.37952 -34.80465,17.95135 -0.72431,21.92787 -0.0744,22.15178 55.60551,19.15789 z"
       id="path1" />
  </g>
</svg>
