<?xml version="1.0" encoding="UTF-8" standalone="no"?>
<!-- Created with Inkscape (http://www.inkscape.org/) -->

<svg
   version="1.1"
   id="svg1"
   width="600"
   height="600"
   viewBox="0 0 600 600"
   sodipodi:docname="Dylan seal white.svg"
   inkscape:version="1.4 (e7c3feb1, 2024-10-09)"
   xmlns:inkscape="http://www.inkscape.org/namespaces/inkscape"
   xmlns:sodipodi="http://sodipodi.sourceforge.net/DTD/sodipodi-0.dtd"
   xmlns="http://www.w3.org/2000/svg"
   xmlns:svg="http://www.w3.org/2000/svg">
  <defs
     id="defs1" />
  <sodipodi:namedview
     id="namedview1"
     pagecolor="#ffffff"
     bordercolor="#000000"
     borderopacity="0.25"
     inkscape:showpageshadow="2"
     inkscape:pageopacity="0.0"
     inkscape:pagecheckerboard="0"
     inkscape:deskcolor="#d1d1d1"
     inkscape:zoom="0.4902607"
     inkscape:cx="152.97983"
     inkscape:cy="327.37684"
     inkscape:window-width="1328"
     inkscape:window-height="644"
     inkscape:window-x="0"
     inkscape:window-y="25"
     inkscape:window-maximized="0"
     inkscape:current-layer="g1" />
  <g
     inkscape:groupmode="layer"
     inkscape:label="Image"
     id="g1"
     style="fill:none">
    <path
       style="fill:#ffffff;fill-opacity:1"
       d="M 388.74431,599.4312 C 388.60994,599.30795 350.25,598.89317 303.5,598.50946 c -46.75,-0.38371 -87.475,-0.89176 -90.5,-1.129 -3.025,-0.23723 -6.175,-0.41325 -7,-0.39114 -3.20884,0.086 -6.62582,-0.13698 -9.5,-0.61986 -1.65,-0.27722 -15.825,-0.65419 -31.5,-0.83772 -31.87445,-0.37321 -51.70367,-1.32321 -54.0968,-2.59172 -0.9113,-0.48305 -2.00207,-0.44115 -2.54082,0.0976 -1.21888,1.21888 -9.647398,1.51632 -15.161498,0.53505 -2.364515,-0.42079 -6.864515,-0.9043 -10,-1.07449 C 63.16942,591.41095 58.130461,590.96512 46,589.2068 28.756411,586.70733 21.688637,582.72157 13.387745,570.81565 9.0897067,564.651 6.9670221,548.07322 8.0975242,529.5 8.2314323,527.3 7.7624896,523.475 7.0554294,521 6.1301717,517.76122 6.0577821,515.72994 6.797145,513.75245 c 0.5650039,-1.51116 0.864032,-3.98616 0.6645068,-5.5 C 7.0227024,504.92203 6.8486575,496.07712 7.1812008,494 c 0.1320812,-0.825 -0.1370469,-4.13185 -0.5980625,-7.34855 -0.6071026,-4.23601 -0.458402,-6.99317 0.5393257,-10 1.8119919,-5.46076 1.5765325,-14.44722 -0.5155374,-19.67582 -1.6017363,-4.00313 -1.5899365,-4.33925 0.2625566,-7.47899 1.2811076,-2.17132 1.6032665,-3.62389 0.9488621,-4.27829 -1.4058912,-1.4059 -1.9776827,-18.05211 -0.7019627,-20.43581 0.7478047,-1.39729 0.7155143,-2.77416 -0.1119065,-4.77173 C 6.3648242,418.46655 5.8699973,412.76988 5.9048608,407.35153 6.1224001,373.54242 5.3925547,352.60144 3.9141784,350.23419 2.848239,348.52735 2.8107499,347.3977 3.7335116,344.79022 5.2845592,340.40736 4.6375437,330.13355 2.5571118,326.11044 1.133309,323.35711 1.0693183,322.33034 2.1257375,319.18877 4.6255005,311.75499 4.7494797,306.83017 2.5634733,301.80061 1.8796937,300.22737 2.3055735,291.28986 3.4593376,283 5.2830411,269.89659 5.6547021,261.51651 5.4329356,238.5 5.227094,217.13629 5.0128364,120.27801 5.1475782,109.5 5.2252096,103.29026 5.1705361,70.361989 5.0772022,67.114572 5.0236869,65.252586 5.4036436,63.218565 5.9215504,62.594526 7.0338747,61.254257 7.9361606,54.17661 9.4872173,34.624971 10.026181,27.83114 10.780687,26.222363 16.463483,19.75 17.308567,18.7875 18,17.130642 18,16.068094 c 0,-1.062548 1.4625,-2.960237 3.25,-4.217087 1.7875,-1.25685 3.832602,-2.8504515 4.544671,-3.5413366 0.712069,-0.6908851 3.187069,-1.7687086 5.5,-2.3951632 C 33.607602,5.2880525 36.625,4.3746127 38,3.8846409 c 2.60542,-0.9284233 4.04193,-1.013494 14,-0.8290853 1.65,0.030556 4.2375,0.056839 5.75,0.058408 3.905765,0.00405 18.149614,-1.0981101 28.98195,-2.24256658 5.862963,-0.61943301 10.487158,-0.62879282 12.671567,-0.0256485 1.891793,0.52234833 9.080273,0.70612193 15.974413,0.40838573 9.98063,-0.431032 13.00216,-0.2437784 14.82843,0.918963 1.8563,1.1818556 2.74402,1.2286738 4.65567,0.2455368 1.57356,-0.8092681 3.37357,-0.9246561 5.39237,-0.3456732 1.66669,0.4780003 3.33192,0.6827082 3.70051,0.4549065 0.87402,-0.5401712 88.71834,-1.97233318 96.54509,-1.57401408 3.3,0.16794368 8.25,0.27576178 11,0.23959578 20.47444,-0.26926505 83.16814,-0.085858 92.5,0.2706036 6.325,0.2416045 16.675,0.4619907 23,0.4897471 6.325,0.027756 23.65,0.1049635 38.5,0.1715714 14.85,0.066608 31.35701,0.059281 36.68224,-0.016282 5.32523,-0.075563 9.8948,0.2064797 10.15459,0.6267619 0.25979,0.4202822 3.55279,0.6096388 7.31776,0.4207925 C 463.41957,2.9677968 470.775,2.8293041 476,2.8488815 c 5.225,0.019578 11.075,-0.00178 13,-0.047452 21.93154,-0.520389 64.27117,0.6400658 66.5,1.8226481 1.1,0.5836427 4.025,0.9226046 6.5,0.7532486 5.30831,-0.3632301 7.92148,0.7997924 6.28329,2.7964586 -2.14438,2.6136184 3.17589,5.3230904 5.51734,2.8098374 C 578.16482,6.299221 587,15.294474 587,24.422124 c 0,1.747832 0.45902,3.636899 1.02005,4.197926 0.56103,0.561028 1.23628,5.488528 1.50057,10.95 1.58734,32.802346 1.61377,33.461095 1.47191,36.67995 -0.0924,2.09557 0.63254,7.094787 1.44969,9.997764 0.42541,1.51127 0.42272,3.53627 -0.006,4.5 -1.40503,3.158577 -1.11581,6.689184 0.8639,10.545946 1.36133,2.65207 1.7722,4.87303 1.36532,7.38034 -0.37181,2.29116 -0.0326,4.64907 0.93908,6.52812 1.20585,2.33186 1.26885,3.24545 0.30397,4.40805 -1.60585,1.93494 -1.70946,50.71978 -0.1118,52.64484 0.77357,0.93209 0.56561,2.80758 -0.75037,6.7672 -1.0714,3.22371 -1.4555,5.86866 -0.93344,6.42774 0.4879,0.5225 0.89398,3.2225 0.9024,6 0.008,2.7775 0.4188,5.68744 0.91194,6.46653 0.53293,0.84194 0.51594,2.41779 -0.0419,3.88498 -0.69498,1.82791 -0.51729,3.11131 0.68475,4.94585 1.25381,1.91356 1.44586,3.53292 0.84381,7.11503 -1.23689,7.3593 -1.33839,8.16933 -2.14728,17.13761 -0.42166,4.675 -0.42574,11.65 -0.009,15.5 1.20969,11.17755 1.46753,21.76632 0.60579,24.87773 -0.46935,1.69464 -0.37101,3.67373 0.2392,4.81392 0.72656,1.3576 0.70624,2.3338 -0.068,3.26671 -1.14353,1.37787 -1.85984,15.62006 -2.3484,46.693 -0.19359,12.31239 -0.65649,18.10797 -1.53041,19.16097 -0.83521,1.00637 -0.90744,1.7231 -0.21667,2.15002 1.08402,0.66996 1.01984,32.1417 -0.0694,34.03765 -0.45159,0.78604 -0.28839,30.35736 0.22076,40 0.0581,1.1 -0.18453,4.25 -0.53914,7 -0.35461,2.75 -0.84274,13.55 -1.08475,24 -0.242,10.45 -0.72642,23.05 -1.07648,28 -0.63517,8.98158 -0.73652,12.22135 -0.50053,16 0.13983,2.23894 -0.60874,18.44378 -0.92388,20 -0.11138,0.55 -0.11751,1.225 -0.0136,1.5 0.81506,2.15779 0.47199,13.90385 -0.45271,15.5 -1.1371,1.96277 -1.13176,2.9695 0.0477,9 0.78228,3.99956 0.61792,7.93588 -0.44847,10.74069 -0.48075,1.26447 -0.65747,3.64009 -0.39271,5.27917 1.40379,8.6907 1.43607,10.60417 0.20397,12.08877 -0.72995,0.87953 -1.36893,4.39748 -1.45176,7.99278 -0.17703,7.68397 -0.63883,8.31375 -4.44679,6.06434 -2.90641,-1.71686 -2.93796,-1.7094 -4.44886,1.05256 -3.44611,6.29956 -8.15773,9.28169 -14.66461,9.28169 -1.54205,0 -3.93657,0.51616 -5.32116,1.14702 -1.94301,0.8853 -2.86647,0.85736 -4.04706,-0.12244 -1.03038,-0.85515 -1.93758,-0.94762 -2.77961,-0.28333 -3.00381,2.36974 -158.55829,5.93476 -161.00569,3.68995 z m 148.30552,-36.51555 c 4.1524,-0.0976 8.4274,0.0864 9.5,0.409 13.03696,3.92068 14.01162,-0.79217 13.72571,-66.36934 -0.13298,-30.50042 0.0212,-56.13031 0.34252,-56.95531 0.47232,-1.21255 1.59576,-71.29345 1.36608,-85.21743 -0.0418,-2.53623 0.507,-4.0719 1.72727,-4.83303 2.09682,-1.30785 1.9799,-9.38843 -0.19655,-13.58353 -1.44046,-2.7765 -0.48607,-9.14774 1.55971,-10.41209 0.87038,-0.53793 0.60496,-1.13711 -0.92769,-2.09426 -2.58865,-1.61664 -2.78988,-5.42099 -0.65857,-12.45073 1.19721,-3.9488 1.27603,-6.08246 0.40296,-10.90893 -0.59695,-3.3 -0.79599,-8.971 -0.44232,-12.60223 0.44347,-4.55328 0.21033,-7.85814 -0.75124,-10.64914 -1.06218,-3.08299 -1.1704,-5.55961 -0.45433,-10.39777 1.77492,-11.99246 1.40543,-45.89599 -0.54002,-49.5512 -2.43516,-4.57527 -2.40459,-19.86391 0.0466,-23.32715 1.70122,-2.40358 2.01469,-6.4023 2.19286,-27.97251 0.0361,-4.37401 0.18152,-12.35022 0.37367,-20.5 0.0519,-2.2 -0.2877,-4.9 -0.75462,-6 -0.46691,-1.1 -0.77785,-3.125 -0.69098,-4.5 0.0869,-1.375 -0.23226,-4.86831 -0.70919,-7.76292 -0.78067,-4.73811 -0.64205,-5.50579 1.39008,-7.69849 1.40564,-1.51671 1.82165,-2.58076 1.1027,-2.82039 -0.82365,-0.27454 -1.18544,-6.95245 -1.26241,-23.301511 C 563.22597,58.129154 562.7736,45.662835 561.58778,43.693204 559.81106,40.742087 554.8498,38.256076 549.25,37.510926 546.3625,37.126695 544,36.503208 544,36.1254 c 0,-2.209916 -8.08427,-3.203088 -29.5,-3.624147 -39.88701,-0.784227 -54.85558,-0.789339 -59.75,-0.02041 -2.66889,0.419293 -4.75,0.35614 -4.75,-0.144142 0,-0.913754 -31.67965,-0.887628 -60.5,0.04989 -8.8,0.286263 -22.075,0.539779 -29.5,0.563369 -24.2561,0.07706 -26.13246,0.149895 -28.66464,1.112632 -1.37676,0.52344 -2.93042,0.687668 -3.45259,0.364951 -0.52217,-0.322717 -7.5719,-0.730627 -15.66608,-0.906467 -8.09418,-0.175839 -15.87508,-0.618945 -17.29089,-0.98468 -1.7629,-0.455397 -2.98659,-0.168078 -3.88268,0.911643 -0.94492,1.138556 -1.66148,1.283654 -2.57895,0.522221 -0.69876,-0.579918 -6.37655,-1.238821 -12.61732,-1.464229 C 269.60608,32.280629 263.15,31.873758 261.5,31.60188 c -5.709,-0.940699 -23.45109,-1.490032 -23.91437,-0.740439 -0.25582,0.413932 -5.75215,0.854811 -12.21406,0.979731 -6.46192,0.12492 -12.22653,0.617852 -12.81025,1.095403 -1.47453,1.206331 -4.8404,1.652339 -6.16895,0.81744 -0.60919,-0.382837 -2.46143,-0.307802 -4.11608,0.166745 -1.65464,0.474546 -3.56917,0.516266 -4.2545,0.09271 C 195.4088,32.398548 139.15263,32.600828 135,34.240076 c -0.825,0.325669 -2.175,0.613539 -3,0.639712 -0.825,0.02617 -10.275,0.270821 -21,0.543662 -10.725,0.27284 -22.474369,0.798358 -26.109709,1.167816 -4.070076,0.41364 -6.846969,0.287848 -7.227207,-0.32739 -0.405037,-0.655365 -2.405931,-0.674074 -5.815435,-0.05438 -2.858865,0.519616 -8.331662,0.731045 -12.16177,0.469844 C 52.214331,36.169807 46,39.540051 46,44.101661 c 0,0.979168 -0.486462,2.080955 -1.081027,2.448416 -0.604762,0.373764 -0.804943,1.768119 -0.454371,3.164907 0.375388,1.495665 0.0396,3.392759 -0.837454,4.731308 C 40.314109,59.502628 38.509613,80.721036 39.072731,108 c 0.10786,5.225 0.149874,10.4 0.09337,11.5 -0.310138,6.03712 0.02152,30.99455 0.420462,31.64005 0.780296,1.26255 0.769655,16.83027 -0.01735,25.38932 -0.562159,6.11371 -0.349439,9.53004 0.891607,14.31939 0.896451,3.45952 1.314596,7.27131 0.92921,8.47064 -0.385386,1.19933 -0.560913,6.0056 -0.39006,10.6806 0.443637,12.1391 0.380014,17.35991 -0.444804,36.5 -1.373404,31.87018 -1.638972,67.83723 -0.561156,76 0.631982,4.78627 0.706079,9.20515 0.184452,11 -0.588549,2.02512 -0.406419,4.59487 0.560471,7.90791 0.989181,3.38941 1.226388,6.95871 0.766676,11.53632 -0.366116,3.64563 -0.7524,18.76208 -0.858409,33.5921 -0.122443,17.12914 -0.645903,28.99092 -1.43519,32.52186 -0.960969,4.29897 -0.987015,7.69724 -0.114966,15 1.198908,10.03995 1.21232,12.09076 0.36081,55.17323 -0.390756,19.77042 -0.221477,28.34172 0.589667,29.85736 0.822824,1.53746 0.835316,2.42839 0.04513,3.21858 -1.335255,1.33525 -1.450603,7.35337 -0.156273,8.15331 0.515002,0.31829 1.001768,1.35735 1.081701,2.30902 0.228814,2.72422 0.701945,11.36187 0.848477,15.4901 0.241431,6.80182 10.441411,10.66823 21.633454,8.20038 2.75,-0.60637 6.35,-0.82948 8,-0.49579 1.65,0.33369 4.575,0.50872 6.5,0.38896 1.925,-0.11976 5.075,-0.2099 7,-0.20032 1.925,0.01 6.2,0.0305 9.5,0.0466 3.3,0.016 7.8,-0.2322 10,-0.55162 2.26532,-0.32891 6.16835,0.0307 9,0.8291 2.75,0.77542 7.475,1.69939 10.5,2.05325 3.025,0.35386 6.96576,1.09028 8.75724,1.63648 2.48351,0.75719 4.26508,0.60823 7.5,-0.62708 3.31823,-1.26713 7.18452,-1.55844 17.74276,-1.33682 7.425,0.15585 17.775,0.009 23,-0.32698 5.68971,-0.36554 9.99771,-0.21643 10.74092,0.37178 0.76014,0.60162 3.08473,0.66299 6,0.1584 2.61749,-0.45305 5.43408,-0.71334 6.25908,-0.57843 0.825,0.13491 10.05,0.44763 20.5,0.69492 21.30656,0.50422 30.58781,0.99601 35,1.85459 9.09221,1.76926 23.3857,1.88572 27.53783,0.22437 3.44244,-1.37739 5.16765,-1.5034 9.34216,-0.68232 9.60425,1.88904 28.96429,2.81084 34.62001,1.64839 3.62581,-0.74524 18.28382,-0.77248 87,-0.16171 34.55966,0.30718 73.04294,1.30783 73.65618,1.91523 0.18936,0.18756 32.4106,-0.10026 45.39365,-0.40548 z M 330.5,551.87752 c -8.60844,-1.54744 -9.35081,-1.83211 -9.9845,-3.82869 -0.33979,-1.07059 -1.44639,-2.20951 -2.45911,-2.53093 -3.17075,-1.00636 -4.57447,-6.25725 -4.33754,-16.22546 0.44229,-18.60824 1.81452,-19.4358 33.27205,-20.06542 25.56925,-0.51178 23.72449,0.0459 24.6041,-7.43821 0.66808,-5.68426 0.66808,-5.68426 -22.89071,-5.98654 C 317.70329,495.40451 314,492.66897 314,470.16698 c 0,-17.87891 1.28627,-18.5992 33.28542,-18.63953 24.60282,-0.031 23.67357,0.27896 23.69927,-7.90526 C 371,438.74438 371,438.74438 367.25,439.31062 c -34.66877,5.23489 -53.70588,-3.59294 -53.10232,-24.62444 0.5959,-20.76434 -0.88895,-20.07705 41.88563,-19.38772 17.94644,0.28922 34.72289,0.11524 37.41677,-0.38804 6.56858,-1.22714 10.78977,0.0941 15.56885,4.87322 6.11624,6.11623 5.93276,3.89005 6.02588,73.11456 0.0961,71.40933 -1.69589,67.10165 26.69791,64.17926 6.94358,-0.71466 14.83494,-0.74064 24.5,-0.0807 16.30702,1.11352 52.59571,1.30155 67.00728,0.34721 C 543,536.69835 543,536.69835 543,530.84918 543,525 543,525 493.75,524.97614 428.03666,524.94431 428.7851,525.20827 428.14883,501.83979 427.52749,479.01925 421.79771,481 488.4327,481 548.16344,481 543,481.84296 543,472.09156 c 0,-5.03991 0,-5.03991 -52.36824,-5.31574 -63.62643,-0.33512 -62.29546,0.20934 -62.7789,-25.68084 -0.36076,-19.32004 -4.60774,-18.06948 60.47388,-17.80701 58.43077,0.23565 54.47538,0.79186 53.8891,-7.57792 -0.40557,-5.78994 -0.40557,-5.78994 -13.56071,-5.5 -90.0327,1.98437 -99.75421,0.12663 -100.50463,-19.20607 -0.40704,-10.48641 6.20073,-9.48723 -59.7348,-9.03262 -44.03508,0.30361 -42.07041,0.54796 -48.71627,-6.05892 -5.38477,-5.3532 -9.05996,-55.76471 -4.66425,-63.97818 1.62501,-3.03636 7.67608,-2.66209 9.14677,0.56574 0.6265,1.375 1.71529,2.5 2.41955,2.5 2.5674,0 2.84638,2.93309 2.53068,26.60706 -0.32146,24.10706 -0.32146,24.10706 3.52318,24.60717 10.26593,1.3354 93.44219,0.24587 94.37943,-1.23629 C 433.67566,354.47611 429.41165,353 392.43426,353 c -25.16132,0 -36.20473,-0.34096 -37.75,-1.1655 -14.37318,-7.6694 -17.9534,-36.06366 -5.21819,-41.38477 4.34147,-1.81398 165.51466,-2.04245 168.98859,-0.23954 2.76765,1.43635 10.52898,9.52329 10.61217,11.05737 1.83099,33.76462 4.26147,32.07368 -46.23188,32.16461 -20.71578,0.0373 -37.94752,0.34957 -38.29276,0.69393 -1.03889,1.03621 -1.82667,7.60434 -1.20775,10.06961 0.5785,2.30429 0.5785,2.30429 48.58414,2.17582 51.4731,-0.13775 51.60546,-0.14745 50.70956,-3.717 -1.28797,-5.13167 -0.83021,-46.46024 0.54657,-49.34678 1.91253,-4.00978 7.30986,-4.53311 8.97862,-0.87057 0.64223,1.40955 1.79343,2.56282 2.55821,2.56282 3.70231,0 4.57558,6.56657 3.59065,27 -0.51696,10.725 -0.90894,22.80203 -0.87106,26.83784 C 557.55847,382.40548 559.45219,382.01 493,382.29326 444.5,382.5 444.5,382.5 444.20228,388.75 c -0.29771,6.25 -0.29771,6.25 49.81574,6.25 54.67124,0 51.85652,-0.30144 58.45525,6.26027 4.61175,4.58587 5.70333,10.1559 4.74251,24.19958 -0.97781,14.29214 1.40018,13.77907 -63.9607,13.80022 -54.97504,0.0178 -51.04822,-0.66234 -49.77149,8.62059 0.64728,4.70628 0.64728,4.70628 51.74073,4.4117 61.11183,-0.35235 63.25684,0.45492 62.61113,23.56367 -0.5959,21.32605 3.01793,20.11088 -59.86294,20.12923 C 439.71652,496.00225 443,495.49042 443,504.55444 c 0,5.44103 0,5.44103 47.75,4.78428 55.27491,-0.76024 53.41508,-0.93705 60.21838,5.72456 6.36167,6.22919 7.03162,8.0014 7.03162,18.60069 0,19.92906 4.51996,18.77101 -74.69858,19.13842 -72.94251,0.33831 -70.94305,0.50335 -77.87423,-6.42783 -6.62477,-6.62477 -6.38015,-3.62437 -5.8871,-72.20873 0.42607,-59.26773 0.35069,-62.96043 -1.29383,-63.37911 C 383.11669,406.93485 329,411.89222 329,417.13004 c 0,5.86996 0,5.86996 9.25,5.87362 45.02371,0.0178 48.58947,2.08454 48.70645,28.23056 0.0719,16.08123 0.36022,15.92881 -30.49027,16.12112 C 328.04835,467.53249 329,467.28629 329,474.46109 c 0,5.34305 0,5.34305 21.75,5.80108 22.72856,0.47864 28.69874,1.4256 29.74364,4.7178 0.33477,1.05475 1.44407,2.18287 2.46513,2.50694 2.58766,0.8213 2.86887,1.96648 3.61799,14.7341 1.34965,23.00276 1.2425,23.07745 -32.44578,22.61622 C 329.5,524.5 329.5,524.5 329.5,530.88399 c 0,6.38399 0,6.38399 24.15465,6.19013 21.12065,-0.16951 24.32363,0.008 25.5,1.41391 1.31279,1.56884 2.39226,2.63896 5.38005,5.3334 8.53098,7.69338 -26.77219,12.95677 -54.0347,8.05609 z M 513.79637,331.30181 c 0.26034,-5.44459 -147.62324,-11.26159 -154.23148,-6.0667 -13.97738,10.98793 -3.4263,12.72044 76.0667,12.49031 C 513.5,337.5 513.5,337.5 513.79637,331.30181 Z M 117.5172,542.4548 c -3.84343,-1.05392 -5.97629,-1.11619 -9.32761,-0.27232 -5.24187,1.31992 -44.844606,-0.46905 -49.975002,-2.25752 -5.618179,-1.95851 -7.350492,-10.93988 -3.142008,-16.2901 C 57.14516,521 57.14516,521 83.123607,521 c 30.843823,0 28.979843,1.29851 28.979843,-20.18826 0,-18.61859 0.30715,-18.28331 -15.968572,-17.43155 -45.093081,2.35985 -41.529306,3.17828 -41.598573,-9.55331 -0.06492,-11.93349 3.663183,-14.31248 17.840086,-11.38416 13.023868,2.69015 94.462629,2.28756 97.435049,-0.48168 2.46081,-2.29259 2.57569,-4.37598 1.31144,-23.78295 -0.9328,-14.319 5.53969,-12.91255 -57.7506,-12.54896 C 49.856891,425.99402 54,426.75972 54,414.65624 c 0,-9.79293 1.654046,-11.34684 10.610006,-9.96768 5.464619,0.84151 8.6988,0.74254 15.633416,-0.47841 7.658009,-1.34831 11.444298,-1.3788 30.499998,-0.24559 19.50127,1.1597 22.82648,1.12161 32.07774,-0.36746 8.56456,-1.37854 12.39394,-1.48945 22.5,-0.65168 14.36818,1.19108 15.37555,1.19979 54.17884,0.46825 68.98786,-1.30059 80,0.21483 80,11.00912 0,10.9832 2.31441,10.56825 -61.5,11.02631 -61.78105,0.44347 -55.73565,-1.74848 -56.71756,20.56478 -0.90127,20.48083 -0.29809,20.77359 35.70902,17.33167 14.83139,-1.41774 20.12371,-1.50151 34.7999,-0.55084 12.55536,0.81329 20.43469,0.82381 28.69278,0.0383 C 297.04878,461.25744 300,462.94613 300,474 c 0,10.02383 -1.7731,11.36229 -14.02498,10.58703 -18.79822,-1.1895 -42.83579,0.28429 -44.13174,2.7058 -1.65614,3.09453 -2.36971,26.02203 -0.9189,29.52462 2.12597,5.13254 4.03751,5.40655 28.6807,4.11124 C 298.44302,519.4129 300,519.9542 300,531.49579 c 0,11.31837 -0.40184,11.37829 -71,10.58709 -17.875,-0.20032 -40.15,0.12754 -49.5,0.7286 -23.97507,1.5412 -55.72801,1.35848 -61.9828,-0.35668 z m 49.68905,-22.59118 c 9.5405,-4.96052 4.50181,-37.63504 -5.60104,-36.32115 -3.35787,0.43669 -9.03021,0.63494 -12.60521,0.44055 -16.74376,-0.91044 -23.10823,-0.5592 -24.50462,1.35237 -3.17388,4.34484 -3.2835,31.03127 -0.14173,34.50289 1.8317,2.02401 38.96634,2.04596 42.8526,0.0253 z m 60.41674,-0.72555 c 1.53501,-3.09076 2.784,-22.5435 1.8728,-29.16869 -0.71285,-5.18302 -0.71285,-5.18302 -14.35432,-4.51024 -8.15384,0.40214 -16.53671,0.24844 -20.83862,-0.38207 C 182.71722,483.37901 181.5,485.08301 181.5,503 c 0,18.24212 -0.77904,17.33931 14.2964,16.56774 9.43565,-0.48293 14.50432,-0.27332 19.7036,0.81481 8.87553,1.8575 10.67409,1.67288 12.12299,-1.24448 z M 144,366.92488 c -2.475,-0.45363 -15.3,-0.73718 -28.5,-0.63011 -64.716776,0.52495 -61.881743,1.00657 -61.8669,-10.51005 0.01501,-11.64763 1.267011,-12.33369 19.766515,-10.83149 22.284785,1.80958 84.298315,0.24393 87.359335,-2.20555 0.69243,-0.55409 3.22178,-5.11149 5.62078,-10.12756 8.03231,-16.79474 12.2145,-16.24421 21.87766,2.87988 4.18945,8.29121 4.69116,8.52275 19.87698,9.17306 13.66549,0.58521 15.74141,0.60734 40.86563,0.43579 7.975,-0.0545 17.875,-0.0529 22,0.003 4.125,0.0564 10.425,-0.041 14,-0.21653 11.01417,-0.54061 15.98521,4.04869 14.57459,13.45537 -0.96405,6.42874 -2.55465,8.12553 -7.2085,7.68976 -2.12635,-0.19911 -6.79109,-0.22739 -10.36609,-0.0629 -3.575,0.16454 -10.1,0.31339 -14.5,0.33078 -4.4,0.0174 -15.65,0.062 -25,0.0992 -54.60859,0.21717 -52.56,0.75773 -61.48682,-16.22465 -4.29797,-8.17644 -4.60309,-8.14368 -9.20829,0.98882 -4.38624,8.69827 -10.01136,14.13867 -16.2405,15.70719 -4.89286,1.23204 -5.08606,1.2328 -11.56439,0.0454 z M 61.272276,308.10852 C 53.381548,305.9531 50.199429,292.28009 56.799115,288.88814 58.922929,287.79659 68.260063,287.39317 100.5,287 c 41,-0.5 41,-0.5 41,-19.5 0,-19 0,-19 -37.5,-19.00164 C 47.398592,248.49589 53.5,260.27564 53.5,151 53.5,42.566315 50.808068,52.304455 81.183257,50.855033 c 26.283033,-1.254154 67.339193,-0.135372 69.012293,1.880589 9.70924,11.69892 -2.66101,23.365569 -21.05602,19.858382 -20.51499,-3.911381 -21.47114,-3.05459 -20.94263,18.766236 0.47953,19.7987 -0.62416,18.63921 17.74423,18.64131 23.88268,0.003 26.89681,4.87396 27.02519,43.67609 0.10268,31.03098 -2.3405,34.30655 -26.42188,35.42383 C 106.73802,190.02041 108,188.76551 108,207.54191 108,228.95681 107.20732,228 124.9486,228 c 26.54064,0 27.2827,1.11599 27.14942,40.83007 -0.13212,39.36696 1.83856,37.46561 -39.73789,38.33989 C 94.837058,307.53845 76.675,308.03728 72,308.27849 c -4.675,0.24121 -9.502476,0.16472 -10.727724,-0.16997 z M 96.037098,224.25 c 1.798431,-3.64155 2.60959,-29.17313 1.021151,-32.14116 -1.172126,-2.19014 -26.603135,-3.32138 -29.745688,-1.32318 -2.942148,1.87079 -4.840638,25.91044 -2.682275,33.96434 1.045753,3.90221 29.456087,3.44992 31.406812,-0.5 z m 44.900982,-58.96617 c 1.18499,-4.26717 1.42878,-32.16043 0.29661,-33.93608 -0.83389,-1.30782 -68.178552,-2.26738 -71.832933,-1.0235 -4.216664,1.43526 -7.887863,30.16254 -4.631965,36.2453 2.38602,4.45763 74.913338,3.23337 76.168288,-1.28572 z M 95.595012,108.89608 c 2.921371,-3.22645 2.890857,-32.33355 -0.03614,-34.475548 -2.142071,-1.567583 -11.147139,-1.852483 -24.057779,-0.761134 -16.319117,1.37947 -10.224641,34.322292 6.554525,35.429552 6.104503,0.40284 11.364286,0.99762 11.688407,1.32174 1.230942,1.23094 4.018381,0.50937 5.850989,-1.51461 z m 90.673218,198.17847 c -15.36679,-0.95637 -23.31426,-19.02689 -8.39579,-19.08986 7.19447,-0.0304 8.12756,-2.5573 8.12756,-22.01036 0,-16.11257 0.0922,-15.82415 -6,-18.77757 -9.38572,-4.55009 -13.73443,-68.79221 -5.18072,-76.53321 4.97515,-4.50245 6.40693,1.88946 6.94961,31.02514 0.3374,18.11473 0.8019,25.31637 1.65397,25.64333 3.69891,1.41941 103.69598,1.09507 104.60279,-0.33928 0.51918,-0.82122 0.95061,-11.75271 0.95904,-24.29992 0.016,-23.83762 0.91138,-31.03165 4.07283,-32.7236 11.27942,-6.03657 9.20687,70.41988 -2.10245,77.55914 -5.80368,3.66371 -6.13931,4.8801 -5.7777,20.93981 0.35887,15.93785 1.04384,17.75769 7.138,18.96433 8.93874,1.76985 10.55735,16.3842 2.1679,19.57386 -2.76944,1.05294 -91.49386,1.10885 -108.21504,0.0682 z m 26.87099,-21.9862 c 2.89122,-2.34117 3.72237,-32.14034 0.98834,-35.43466 -2.13857,-2.5768 -12.48552,-2.29573 -15.19399,0.41274 -2.69794,2.69794 -2.63965,34.24925 0.0664,35.95657 2.74143,1.72961 11.56967,1.14604 14.13922,-0.93465 z m 30.37441,0.25517 c 2.99294,-2.99295 1.78862,-32.87404 -1.42992,-35.47829 -11.75031,-9.50766 -20.4479,8.61559 -15.13217,31.53106 1.34087,5.78032 12.15231,8.357 16.56209,3.94723 z m 29.04342,0.23842 c 2.05314,-1.50129 2.95862,-27.28724 1.18451,-33.73201 -1.28167,-4.65593 -11.40419,-6.5632 -15.82673,-2.98205 -3.23581,2.6202 -3.57229,34.44699 -0.38879,36.77482 2.46776,1.80447 12.53582,1.76377 15.03101,-0.0608 z M 447,293.19427 c -18.83862,-2.30385 -19.8188,-6.80156 -19.4675,-89.32974 0.0443,-10.39823 6.26565,-15.79117 9.64945,-8.36453 0.6265,1.375 1.76481,2.5 2.52959,2.5 3.71988,0 4.56261,6.50649 3.82085,29.5 -0.70971,22 -0.70971,22 34.62895,22 35.33866,0 35.33866,0 35.63435,-6.75 0.29569,-6.75 0.29569,-6.75 -20.6849,-6.75 -25.06281,0 -29.58509,-1.53162 -35.05732,-11.87331 -2.24159,-4.23625 -2.49246,-21.05717 -0.37474,-25.12554 C 464.28283,186.31397 529,189.60552 529,202.62858 529,206.80609 527.75275,207 500.88179,207 469.95028,207 472,206.4503 472,214.74556 c 0,6.53158 0,6.53158 19.72692,6.03627 C 523.04973,219.99538 529,223.94138 529,245.5 529,265.53464 530.28227,265 482.23212,265 441.21216,265 443,264.67769 443,272.07277 c 0,5.13612 23.35835,7.19893 61.35349,5.41823 18.22363,-0.85407 32.05268,7.72928 22.39651,13.90097 -2.07207,1.32435 -70.93297,2.88056 -79.75,1.8023 z m -125.25,-1.78956 c -1.5125,-0.80772 -2.75,-2.05698 -2.75,-2.77613 0,-0.71915 -1.125,-1.82013 -2.5,-2.44663 -2.76428,-1.25949 -3.42617,-5.16841 -1.18948,-7.02469 0.8244,-0.68419 11.396,-1.34468 28.5,-1.78062 C 371,276.68366 371,276.68366 371,270.80787 c 0,-5.87579 0,-5.87579 -21.25,-5.59183 -23.97724,0.3204 -23.48191,0.43767 -30.85908,-7.30546 C 313.77219,252.53794 313,249.72316 313,236.43715 c 0,-14.00764 2.89177,-15.28571 35.25,-15.57938 22.75,-0.20648 22.75,-0.20648 22.75,-6.55633 0,-6.34985 0,-6.34985 -20.3209,-6.23739 C 320.60402,208.23048 314,203.97772 314,184.44397 314,164.71922 314.10698,164.65088 346,164 c 32.42904,-0.66182 40.72237,-12.95789 8.79772,-13.04391 -36.13735,-0.0974 -40.71085,-3.04044 -40.77386,-26.23821 -0.0493,-18.15635 1.85157,-19.1753 34.56975,-18.53062 22.62795,0.44585 22.62795,0.44585 22.01717,-4.01028 C 370.27485,99.726115 370,96.590339 370,95.208594 c 0,-2.512263 0,-2.512263 -19.51961,-1.946449 -32.27476,0.935546 -43.33651,-10.435097 -35.52283,-36.514815 2.85409,-9.526124 29.75249,-11.824173 38.64695,-3.30178 8.60023,8.240463 4.04826,11.982509 -14.2988,11.754648 -11.60279,-0.1441 -12.07125,0.209127 -10.87316,8.198573 2.17213,14.484827 43.1448,4.975225 42.19007,-9.792156 -0.97251,-15.042226 2.5807,-18.638592 10.54559,-10.673695 5.33262,5.332621 5.43977,6.036943 5.28609,34.748782 -0.1902,35.536878 1.60101,33.682568 -32.96971,34.131128 -24.10959,0.31282 -24.10959,0.31282 -24.10959,6.80809 0,6.49528 0,6.49528 21.0625,6.24385 31.39696,-0.3748 48.54611,19.35953 33.4742,38.52035 -4.43083,5.6329 -6.29508,5.97828 -31.54745,5.84472 C 326.62337,179.0937 328,178.56286 328,188.625 328,192 328,192 347.55718,192 380.17487,192 386,195.82652 386,217.25305 c 0,14.11443 -1.21921,16.49868 -9.5,18.57793 -4.24347,1.0655 -33.53016,0.81679 -39.68028,-0.33698 C 330.01526,234.21748 329,235.20075 329,243.06739 329,250 329,250 350.4349,250 c 23.71161,0 25.06338,0.26298 30.7906,5.9902 8.62571,8.62571 7.58231,32.49098 -1.57153,35.9451 -4.16612,1.57205 -54.83611,1.10775 -57.90397,-0.53059 z m 84.49298,0.43827 C 405.55934,291.15934 405,290.06748 405,289.41663 c 0,-0.65085 -0.89458,-1.41731 -1.98796,-1.70323 -3.46281,-0.90555 -3.64614,-4.04899 -3.5784,-61.35823 0.0821,-69.46599 -3.58732,-62.32944 32.06636,-62.36491 24.85318,-0.0247 25.5,-0.29601 25.5,-10.69538 0,-3.57492 0,-3.57492 -22.25,-2.861 -25.02154,0.80285 -25.90502,0.64957 -31.83606,-5.52345 C 398.41191,140.22472 398.28789,139.71211 401,137 c 1.89664,-1.89664 3.33333,-2 27.8,-2 29.15416,0 28.2,0.26053 28.2,-7.7 0,-5.3 0,-5.3 -22.06574,-5.3 -23.79409,0 -24.04975,-0.0488 -29.66614,-5.66521 -4.7635,-4.7635 -5.01199,-6.17592 -5.8131,-33.041356 C 398.32717,45.470817 389.28597,49.375849 477.52951,49.571898 548.71782,49.730056 550.4882,49.812103 551.5,53 c 0.33127,1.043732 1.45627,2.168732 2.5,2.5 5.07967,1.612225 2.65351,7.779617 -3.51567,8.936962 -1.86171,0.34926 -32.3198,0.667079 -67.68463,0.706266 -77.69917,0.0861 -68.03486,-2.895024 -68.18059,21.03146 -0.13375,21.960912 -1.93948,20.807102 32.58384,20.820142 14.21055,0.005 18.3035,0.87477 19.32898,4.10577 0.31371,0.9884 1.44631,2.07511 2.5169,2.4149 2.48172,0.78767 2.98735,3.16338 2.69077,12.64272 -0.28071,8.97231 -0.13391,9.19995 5.98467,9.28031 6.88786,0.0905 7.2432,-1.0671 7.26099,-23.65328 C 485,93.07051 485,93.07051 460.75,93.393907 c -27.56882,0.367658 -39.90131,-5.099739 -31.17857,-13.822478 1.97042,-1.970424 56.03979,-2.385049 59.64172,-0.457355 7.47371,3.999811 10.78629,10.411172 10.78777,20.879324 0.001,10.498842 41.33552,10.244142 41.79509,-0.257541 0.29601,-6.764144 0.29601,-6.764144 -5.15976,-6.122925 -9.3474,1.098603 -14.13695,-0.168167 -19.28464,-5.10052 -7.63774,-7.318246 -5.73233,-9.217171 10.60293,-10.566807 23.10437,-1.908905 32.71948,8.732812 28.95727,32.049015 -1.94091,12.02879 -4.51901,13.00418 -32.41549,12.26409 -23.98869,-0.63642 -23.39746,-0.82429 -24.50204,7.78589 -0.81913,6.38509 -1.39742,6.25256 21.31644,4.88497 23.54824,-1.41782 25.82489,-1.10119 31.39249,4.36594 10.36214,10.17517 6.46597,12.01198 -24.10875,11.36587 -29.55493,-0.62457 -29.03382,-0.80108 -28.71294,9.72557 0.11848,3.88694 0.11848,3.88694 20.36845,3.39962 24.06628,-0.57915 36.36285,3.89814 36.81191,13.40357 1.11867,23.67913 0.65923,111.58656 -0.59319,113.49799 -2.32307,3.54545 -6.03453,2.98133 -10.63186,-1.61601 -3.92788,-3.92788 -3.92788,-3.92788 -3.92691,-57.0684 9.8e-4,-53.14051 9.8e-4,-53.14051 -8.20447,-52.83514 -42.14454,1.56845 -51.14491,-2.82145 -48.97092,-23.88538 C 485.27981,150 485.27981,150 480.21133,150 c -7.46227,0 -8.20831,1.16281 -8.22607,12.82143 -0.0251,16.46148 1.13014,15.87825 -33.23526,16.7795 -23.75,0.62286 -23.75,0.62286 -23.76474,54.26096 -0.0113,41.08661 -0.30922,54.22312 -1.27317,56.13811 -1.405,2.79116 -5.50842,3.80367 -7.46911,1.84298 z M 193.37427,190.31055 c -7.72297,-1.5153 -9.93392,-16.72576 -2.98712,-20.55016 2.67213,-1.47108 86.98448,-1.87987 90.31307,-0.43788 4.3309,1.87619 5.63254,10.97943 2.34165,16.37667 -3.1646,5.1901 -6.863,5.67278 -32.99176,4.30579 -16.61192,-0.86909 -26.23677,-0.89449 -36.55011,-0.0964 -14.22711,1.1009 -16.34784,1.14326 -20.12573,0.40201 z m -18.01888,-61.28919 c -4.14979,-2.75056 -5.17382,-7.68648 -2.66115,-12.82704 C 175.96877,109.4951 175.93415,109.5 220,109.5 c 39.5,0 39.5,0 39.3808,-16.071334 C 259.21016,70.420783 264.69808,73 215.91379,73 170.20299,73 172,73.452737 172,61.936411 c 0,-11.7982 0.67154,-11.948926 52.89922,-11.873159 78.81027,0.11433 74.24301,-2.28078 74.92208,39.289703 0.58904,36.059315 -1.46051,46.098745 -8.06312,39.496135 -3.45279,-3.4528 -4.14502,-10.54176 -3.2482,-33.264244 0.91611,-23.211439 1.02884,-22.93165 -9.0339,-22.423505 -9.56932,0.483229 -8.90066,-1.218842 -9.49521,24.170221 -0.81867,34.959918 -0.11176,34.343408 -37.86981,33.026688 -28.47941,-0.99315 -29.1907,-0.99317 -43.11106,-9.8e-4 -9.67371,0.68951 -10.74746,0.58438 -13.64461,-1.33591 z"
       id="path1"
       inkscape:label="path1" />
  </g>
</svg>
